<svg width="241" height="240" viewBox="0 0 241 240" fill="none" xmlns="http://www.w3.org/2000/svg">
<g clip-path="url(#clip0_10_57)">
<path d="M233.878 81.45L129.275 49.3125C123.575 47.5612 117.425 47.5612 111.729 49.3125L7.1225 81.45C-1.705 84.1612 -1.705 95.835 7.1225 98.5462L25.3588 104.149C21.3575 109.095 18.8975 115.129 18.6537 121.736C15.0425 123.806 12.5 127.541 12.5 132C12.5 136.042 14.63 139.444 17.6975 141.619L8.12375 184.699C7.29125 188.445 10.1412 192 13.9775 192H35.0188C38.8588 192 41.7087 188.445 40.8762 184.699L31.3025 141.619C34.37 139.444 36.5 136.042 36.5 132C36.5 127.661 34.0737 124.031 30.6275 121.924C30.9125 116.291 33.7925 111.311 38.3863 108.154L111.725 130.688C115.123 131.73 121.64 133.031 129.271 130.688L233.878 98.55C242.709 95.835 242.709 84.165 233.878 81.45ZM132.796 142.159C122.098 145.444 112.981 143.629 108.2 142.159L53.8175 125.452L48.5 168C48.5 181.256 80.735 192 120.5 192C160.265 192 192.5 181.256 192.5 168L187.183 125.449L132.796 142.159Z" fill="#A67C2E"/>
</g>
<defs>
<clipPath id="clip0_10_57">
<rect width="240" height="240" fill="white" transform="translate(0.5)"/>
</clipPath>
</defs>
</svg>
